<?xml version="1.0" standalone="no"?>
<!DOCTYPE svg PUBLIC "-//W3C//DTD SVG 20010904//EN"
 "http://www.w3.org/TR/2001/REC-SVG-20010904/DTD/svg10.dtd">
<svg version="1.0" xmlns="http://www.w3.org/2000/svg"
 width="200.000000pt" height="200.000000pt" viewBox="0 0 200.000000 200.000000"
 preserveAspectRatio="xMidYMid meet">
<metadata>
Created by potrace 1.11, written by Peter Selinger 2001-2013
</metadata>
<g transform="translate(0.000000,200.000000) scale(0.100000,-0.100000)"
fill="#000000" stroke="none">
<path d="M325 1176 c-44 -20 -83 -60 -105 -108 -30 -68 -13 -170 37 -209 17
-13 17 -13 1 6 -57 69 -36 199 41 250 95 63 217 31 262 -69 23 -50 24 -95 4
-144 l-15 -37 19 25 c50 64 35 187 -30 247 -54 50 -150 67 -214 39z"/>
<path d="M952 1028 c4 -106 22 -105 26 2 2 67 0 80 -13 80 -13 0 -15 -13 -13
-82z"/>
<path d="M1482 1098 c6 -18 28 -21 28 -4 0 9 -7 16 -16 16 -9 0 -14 -5 -12
-12z"/>
<path d="M647 1093 c-3 -7 -2 -91 2 -134 1 -12 14 -15 64 -14 34 0 63 4 65 8
6 19 -2 22 -51 22 l-52 0 -1 40 c-3 79 -4 85 -13 85 -6 0 -12 -3 -14 -7z"/>
<path d="M1328 1090 c-15 -9 -18 -25 -18 -81 0 -52 3 -70 13 -67 7 3 13 28 15
67 l3 62 42 -3 c37 -3 42 -6 42 -28 0 -22 -5 -25 -37 -28 -53 -4 -52 -32 0
-32 63 0 98 65 55 102 -22 17 -91 22 -115 8z"/>
<path d="M800 1011 c0 -28 4 -52 9 -56 18 -10 71 -12 77 -3 9 14 -14 27 -37
21 -17 -5 -19 0 -19 41 0 34 -4 46 -15 46 -11 0 -15 -12 -15 -49z"/>
<path d="M899 1028 c-1 -18 0 -48 1 -65 2 -33 -7 -39 -48 -34 -8 2 -12 -5 -10
-16 3 -14 11 -17 33 -15 46 6 51 16 52 92 1 54 -2 70 -13 70 -9 0 -14 -12 -15
-32z"/>
<path d="M1016 1039 c-14 -11 -26 -26 -26 -32 0 -12 59 -67 72 -67 19 0 16 21
-7 36 -32 21 -31 29 3 59 25 23 26 24 6 25 -12 0 -33 -9 -48 -21z"/>
<path d="M1102 1043 c-11 -23 -8 -71 5 -84 6 -6 24 -13 42 -15 23 -4 31 -1 31
10 0 9 -7 17 -15 17 -8 1 -21 2 -27 3 -7 0 -14 13 -16 29 -3 25 -1 27 32 27
20 0 36 -4 36 -10 0 -5 -13 -10 -30 -10 -16 0 -30 -4 -30 -10 0 -5 3 -10 8
-11 4 0 19 -3 35 -5 22 -4 29 0 39 20 16 37 -4 56 -58 56 -31 0 -46 -5 -52
-17z"/>
<path d="M1482 1003 c4 -81 28 -85 28 -4 0 48 -3 61 -15 61 -13 0 -15 -11 -13
-57z"/>
<path d="M1540 1041 c-17 -33 -12 -69 13 -84 27 -17 89 -16 95 1 3 11 -4 13
-63 16 -14 1 -21 9 -23 29 -3 25 -1 27 36 27 26 0 42 5 46 15 9 25 -90 21
-104 -4z"/>
<path d="M358 933 c7 -3 16 -2 19 1 4 3 -2 6 -13 5 -11 0 -14 -3 -6 -6z"/>
<path d="M446 930 c7 -8 14 -24 17 -35 4 -19 5 -19 6 1 0 12 -7 28 -16 35 -16
12 -17 12 -7 -1z"/>
<path d="M338 897 c-3 -19 -2 -25 4 -19 6 6 8 18 6 28 -3 14 -5 12 -10 -9z"/>
<path d="M396 855 c5 -12 -2 -15 -31 -15 -26 0 -34 4 -30 13 4 6 -1 3 -9 -7
-25 -31 -5 -42 76 -40 100 2 100 2 96 17 -3 6 -22 14 -44 17 -24 3 -38 10 -36
18 1 6 -5 12 -13 12 -9 0 -12 -6 -9 -15z"/>
</g>
</svg>
